HIERARCHY
ROOT Hips
{
  OFFSET 179.979 97.3047 303.174
  CHANNELS 6 Xposition Yposition Zposition Zrotation Xrotation Yrotation
  JOINT Spine
  {
    OFFSET 0.000859786 9.92346 -1.22733
    CHANNELS 3 Zrotation Xrotation Yrotation
    JOINT Spine1
    {
      OFFSET 0 11.732 0
      CHANNELS 3 Zrotation Xrotation Yrotation
      JOINT Spine2
      {
        OFFSET 0 13.4588 0
        CHANNELS 3 Zrotation Xrotation Yrotation
        JOINT Neck
        {
          OFFSET 2.54812e-05 15.0278 0.877907
          CHANNELS 3 Zrotation Xrotation Yrotation
          JOINT Head
          {
            OFFSET 0 10.3218 3.14243
            CHANNELS 3 Zrotation Xrotation Yrotation
            End Site
            {
              OFFSET 0 0 0
            }
          }
        }
        JOINT LeftShoulder
        {
          OFFSET 6.10582 9.10629 0.757062
          CHANNELS 3 Zrotation Xrotation Yrotation
          JOINT LeftArm
          {
            OFFSET 0 12.9223 0
            CHANNELS 3 Zrotation Xrotation Yrotation
            JOINT LeftForeArm
            {
              OFFSET 0 27.4047 0
              CHANNELS 3 Zrotation Xrotation Yrotation
              JOINT LeftHand
              {
                OFFSET -1.28204e-05 27.6145 0
                CHANNELS 3 Zrotation Xrotation Yrotation
                End Site
                {
                  OFFSET 0 0 0
                }
              }
            }
          }
        }
        JOINT RightShoulder
        {
          OFFSET -6.1057 9.10638 0.757076
          CHANNELS 3 Zrotation Xrotation Yrotation
          JOINT RightArm
          {
            OFFSET 0 12.9223 0
            CHANNELS 3 Zrotation Xrotation Yrotation
            JOINT RightForeArm
            {
              OFFSET 0 27.4047 0
              CHANNELS 3 Zrotation Xrotation Yrotation
              JOINT RightHand
              {
                OFFSET 1.28428e-05 27.6145 1.44975e-05
                CHANNELS 3 Zrotation Xrotation Yrotation
                End Site
                {
                  OFFSET 0 0 0
                }
              }
            }
          }
        }
      }
    }
  }
  JOINT LeftUpLeg
  {
    OFFSET 9.12387 -6.65719 -0.0554031
    CHANNELS 3 Zrotation Xrotation Yrotation
    JOINT LeftLeg
    {
      OFFSET 0 40.5994 0
      CHANNELS 3 Zrotation Xrotation Yrotation
      JOINT LeftFoot
      {
        OFFSET 0 42.099 0
        CHANNELS 3 Zrotation Xrotation Yrotation
        JOINT LeftToeBase
        {
          OFFSET 0 15.7216 0
          CHANNELS 3 Zrotation Xrotation Yrotation
          End Site
          {
            OFFSET 0 0 0
          }
        }
      }
    }
  }
  JOINT RightUpLeg
  {
    OFFSET -9.12503 -6.6556 -0.0553527
    CHANNELS 3 Zrotation Xrotation Yrotation
    JOINT RightLeg
    {
      OFFSET 0 40.5994 0
      CHANNELS 3 Zrotation Xrotation Yrotation
      JOINT RightFoot
      {
        OFFSET 0 42.099 0
        CHANNELS 3 Zrotation Xrotation Yrotation
        JOINT RightToeBase
        {
          OFFSET 0 15.7216 0
          CHANNELS 3 Zrotation Xrotation Yrotation
          End Site
          {
            OFFSET 0 0 0
          }
        }
      }
    }
  }
}
MOTION
Frames:	13
Frame Time:	0.0333333
-206.794 98.8046 -408.869 1.0356 -9.34511 -4.12344 -0.627562 -4.36987 0.299151 -1.22595 5.19181 0.758536 -1.31374 11.7858 0.77565 0.951437 7.94554 -1.80725 5.8869 -12.8523 -2.23367 -89.9164 -15.4514 90.1722 20.8427 7.11394 -10.2879 19.441 -16.7831 -0.802633 -11.4197 -4.89286 33.3006 94.0692 -18.5186 -89.8102 -20.1812 10.1998 8.84755 -17.104 -15.9188 0.784973 7.68399 -6.42701 -8.36681 179.495 -10.9169 -1.45556 -1.72553 -7.7141 -9.696 16.9973 66.4496 -17.2562 -0.965281 26.367 -3.60229 174.704 -10.1967 -2.48626 5.9143 -10.7784 9.99874 -22.1474 70.8945 21.0676 0.963541 26.3682 3.55537 
-206.799 98.8046 -408.869 1.03871 -9.34861 -4.11625 -0.627562 -4.36987 0.299151 -1.22595 5.19181 0.758536 -1.31374 11.7858 0.77565 0.962904 7.95249 -1.80735 5.87212 -12.8523 -2.22873 -89.9164 -15.4514 90.1722 20.8319 7.11769 -10.2928 19.4452 -16.7869 -0.802649 -11.4239 -4.89486 33.3259 94.0727 -18.5227 -89.8089 -20.176 10.1871 8.86069 -17.1087 -15.9188 0.784973 7.68184 -6.42566 -8.36694 179.494 -10.977 -1.45198 -1.72751 -7.65417 -9.69507 16.9973 66.4496 -17.2562 -0.965281 26.367 -3.60229 174.71 -10.197 -2.44895 5.91388 -10.7897 9.98333 -22.1516 70.9012 21.0615 0.963541 26.3682 3.55537 
-206.814 98.8047 -408.871 1.04991 -9.3579 -4.08874 -0.627562 -4.36987 0.299151 -1.2317 5.19181 0.758538 -1.31973 11.7858 0.776342 1.00057 7.96883 -1.80763 5.82509 -12.8525 -2.21217 -89.9164 -15.4514 90.1722 20.8125 7.12784 -10.3129 19.4551 -16.7972 -0.802692 -11.4515 -4.90218 33.4073 94.0852 -18.5367 -89.8042 -20.1603 10.1437 8.90253 -17.1244 -15.9155 0.78496 7.67041 -6.38062 -8.38226 179.501 -10.9594 -1.41335 -1.73589 -7.67144 -9.69566 16.9917 66.4423 -17.251 -0.965281 26.367 -3.60229 174.716 -10.1972 -2.41049 5.91428 -10.8137 9.98324 -22.182 70.9147 21.0755 0.963541 26.3682 3.55537 
-206.827 98.8048 -408.875 1.06166 -9.36347 -4.05432 -0.627562 -4.36987 0.299151 -1.23798 5.19181 0.758541 -1.32628 11.7857 0.7771 1.03265 7.98507 -1.8035 5.79274 -12.8564 -2.19411 -89.9189 -15.4514 90.1715 20.7951 7.13914 -10.3405 19.4628 -16.8029 -0.802717 -11.4826 -4.91881 33.4764 94.0938 -18.5474 -89.801 -20.1491 10.1122 8.90905 -17.1267 -15.9336 0.785031 7.65283 -6.30797 -8.36509 179.508 -11.0048 -1.37177 -1.74217 -7.62406 -9.6951 16.9862 66.4353 -17.2459 -0.965281 26.367 -3.60229 174.718 -10.1973 -2.40122 5.91485 -10.8325 10.0011 -22.229 70.9247 21.1241 0.963541 26.3682 3.55537 
-206.838 98.8048 -408.881 1.07379 -9.36369 -4.01691 -0.627562 -4.36987 0.299151 -1.24518 5.1918 0.760704 -1.33362 11.7857 0.777949 1.05898 8.00574 -1.79659 5.76868 -12.8744 -2.17516 -89.9276 -15.4514 90.1692 20.7806 7.1435 -10.3627 19.463 -16.8039 -0.802721 -11.5178 -4.91248 33.4667 94.0972 -18.5523 -89.7996 -20.1335 10.0876 8.88694 -17.1237 -15.9493 0.785093 7.64167 -6.22157 -8.29103 179.516 -10.9567 -1.33238 -1.74145 -7.66515 -9.69576 16.9811 66.4283 -17.2456 -0.965281 26.367 -3.60229 174.717 -10.1904 -2.41173 5.91548 -10.8477 10.0297 -22.2791 70.934 21.1937 0.963541 26.3682 3.55537 
-206.847 98.8049 -408.888 1.08572 -9.35877 -3.98011 -0.627562 -4.36987 0.299151 -1.2527 5.1918 0.762267 -1.34133 11.7857 0.77884 1.06734 8.03239 -1.79018 5.76176 -12.9181 -2.16289 -89.9351 -15.4514 90.1672 20.7733 7.15581 -10.3751 19.4601 -16.8017 -0.802711 -11.5428 -4.86859 33.3329 94.0966 -18.557 -89.7996 -20.1206 10.0697 8.84324 -17.1115 -15.9346 0.785035 7.65308 -6.19269 -8.09717 179.521 -10.9778 -1.2975 -1.74084 -7.63104 -9.69517 16.9787 66.424 -17.2567 -0.965281 26.367 -3.60229 174.712 -10.1809 -2.44007 5.91608 -10.854 10.0657 -22.3266 70.9418 21.2779 0.963541 26.3682 3.55537 
-206.855 98.8049 -408.895 1.0921 -9.35284 -3.94661 -0.627562 -4.36987 0.299151 -1.25816 5.1918 0.763501 -1.34691 11.7857 0.779487 1.0585 8.05701 -1.78269 5.77193 -12.9765 -2.15598 -89.9304 -15.4514 90.1687 20.7692 7.19996 -10.3931 19.4577 -16.7904 -0.802664 -11.564 -4.86529 33.1596 94.0885 -18.5523 -89.8024 -20.1032 10.0703 8.8176 -17.104 -15.911 0.784943 7.6898 -6.20437 -7.88585 179.529 -10.8835 -1.26737 -1.73785 -7.70736 -9.69633 16.972 66.4142 -17.2632 -0.965281 26.367 -3.60229 174.709 -10.1594 -2.46447 5.91629 -10.855 10.072 -22.2463 70.9664 21.3052 0.963541 26.3682 3.55537 
-206.862 98.8049 -408.902 1.09519 -9.34668 -3.91989 -0.627562 -4.36987 0.299151 -1.26315 5.1918 0.765066 -1.35197 11.7857 0.780072 1.03557 8.07198 -1.77463 5.79342 -13.0365 -2.15408 -89.9337 -15.4514 90.1682 20.7663 7.23902 -10.4125 19.4576 -16.7536 -0.802508 -11.6515 -4.91907 32.9866 94.0716 -18.5357 -89.805 -20.0824 10.0868 8.8168 -17.0978 -15.8869 0.782354 7.76209 -6.20594 -7.654 179.534 -10.8687 -1.24604 -1.73344 -7.70344 -9.69322 16.9511 66.4026 -17.2493 -0.965281 26.367 -3.60229 174.712 -10.1552 -2.48475 5.91682 -10.8379 10.0859 -22.2111 70.9748 21.3392 0.963541 26.3682 3.55537 
-206.87 98.8048 -408.907 1.09745 -9.33926 -3.89789 -0.627562 -4.36987 0.299151 -1.26824 5.19179 0.767622 -1.35705 11.7857 0.780659 0.995891 8.07727 -1.766 5.8276 -13.087 -2.15867 -89.949 -15.4515 90.1645 20.762 7.26547 -10.4256 19.4416 -16.7208 -0.80237 -11.769 -4.98887 32.758 94.0474 -18.5143 -89.808 -20.0636 10.1129 8.8316 -17.088 -15.8612 0.779596 7.8272 -6.22158 -7.27922 179.538 -10.9138 -1.24778 -1.71839 -7.6378 -9.67488 16.9116 66.3945 -17.2144 -0.965281 26.367 -3.60229 174.722 -10.1642 -2.50701 5.91828 -10.8073 10.1169 -22.28 70.9515 21.3901 0.963541 26.3682 3.55537 
-206.879 98.8047 -408.912 1.09969 -9.32954 -3.87925 -0.627562 -4.36987 0.299151 -1.27055 5.19179 0.772437 -1.36007 11.7856 0.785603 0.946753 8.0823 -1.75565 5.8737 -13.1316 -2.16655 -89.9704 -15.4539 90.1592 20.748 7.28569 -10.4277 19.4178 -16.7091 -0.802291 -11.8973 -5.04571 32.4743 94.0222 -18.4948 -89.8123 -20.0428 10.1362 8.81174 -17.0798 -15.8362 0.776756 7.87464 -6.33675 -6.6777 179.546 -10.9036 -1.24173 -1.71462 -7.62992 -9.66758 16.8978 66.3907 -17.2001 -0.965281 26.367 -3.60229 174.736 -10.1667 -2.50222 5.91556 -10.7784 10.1262 -22.3184 70.9245 21.3902 0.963541 26.3682 3.55537 
-206.888 98.8047 -408.915 1.09513 -9.31809 -3.86458 -0.627562 -4.36987 0.299151 -1.27268 5.19178 0.779545 -1.36293 11.7856 0.792936 0.914204 8.08337 -1.74811 5.91389 -13.1739 -2.17054 -89.9874 -15.4631 90.1552 20.7408 7.30626 -10.4338 19.3852 -16.7074 -0.802276 -11.9881 -5.10643 32.1547 94.0098 -18.487 -89.8156 -20.0323 10.1463 8.78154 -17.0687 -15.8108 0.7738 7.89217 -6.44091 -6.30852 179.563 -10.8643 -1.22462 -1.71913 -7.65411 -9.67087 16.9133 66.3968 -17.2081 -0.965281 26.367 -3.60229 174.755 -10.1611 -2.47251 5.90991 -10.7609 10.1168 -22.3203 70.9061 21.3572 0.963541 26.3682 3.55537 
-206.897 98.8046 -408.918 1.08721 -9.30591 -3.85268 -0.627763 -4.36987 0.303561 -1.27483 5.19177 0.788735 -1.36612 11.7856 0.802146 0.908551 8.0643 -1.74594 5.94219 -13.195 -2.17269 -89.9911 -15.4829 90.1548 20.7456 7.33389 -10.4392 19.3458 -16.712 -0.802307 -12.0454 -5.17442 31.8326 94.0155 -18.4943 -89.8143 -20.0381 10.139 8.75034 -17.0485 -15.7846 0.770603 7.90839 -6.50283 -6.08285 179.584 -10.7756 -1.2081 -1.73524 -7.72681 -9.67561 16.9372 66.4123 -17.2241 -0.965281 26.367 -3.60229 174.781 -10.1619 -2.45023 5.8998 -10.7483 10.1217 -22.3502 70.8966 21.3658 0.963541 26.3682 3.55537 
-206.907 98.8045 -408.918 1.07853 -9.29386 -3.84278 -0.627998 -4.36987 0.308724 -1.27723 5.19175 0.800031 -1.36966 11.7856 0.813614 0.922715 8.04368 -1.75296 5.9426 -13.1981 -2.17502 -89.9855 -15.4996 90.1569 20.7554 7.36998 -10.4381 19.3078 -16.7153 -0.802352 -12.086 -5.25687 31.5447 94.0292 -18.5033 -89.8109 -20.0478 10.1232 8.71963 -17.0118 -15.7609 0.766175 7.90695 -6.52742 -5.94337 179.608 -10.7732 -1.20105 -1.74309 -7.71268 -9.66948 16.9299 66.4114 -17.2118 -0.965281 26.367 -3.60229 174.798 -10.1447 -2.42455 5.88723 -10.7478 10.0992 -22.2525 70.917 21.3339 0.963541 26.3682 3.55537 
